<?xml version="1.0" encoding="UTF-8"?>
<svg width="275px" height="276px" viewBox="0 0 275 276" version="1.1" xmlns="http://www.w3.org/2000/svg" xmlns:xlink="http://www.w3.org/1999/xlink">
    <title>diagonal_lines_orange_HP</title>
    <defs>
        <filter id="filter-1">
            <feColorMatrix in="SourceGraphic" type="matrix" values="0 0 0 0 1.000000 0 0 0 0 0.627451 0 0 0 0 0.192157 0 0 0 1.000000 0"></feColorMatrix>
        </filter>
        <filter id="filter-2">
            <feColorMatrix in="SourceGraphic" type="matrix" values="0 0 0 0 0.560784 0 0 0 0 0.776471 0 0 0 0 0.568627 0 0 0 1.000000 0"></feColorMatrix>
        </filter>
        <polygon id="path-3" points="0 0.0478703201 205.855292 0.0478703201 205.855292 204.986694 0 204.986694"></polygon>
        <polygon id="path-5" points="0 0.0608007559 116.718222 0.0608007559 116.718222 117.702173 0 117.702173"></polygon>
        <polygon id="path-7" points="0 0.0619939275 72.1206033 0.0619939275 72.1206033 73.1130589 0 73.1130589"></polygon>
        <polygon id="path-9" points="0.267280085 0.324526031 116.969207 0.324526031 116.969207 117.407933 0.267280085 117.407933"></polygon>
    </defs>
    <g id="UI" stroke="none" stroke-width="1" fill="none" fill-rule="evenodd">
        <g id="diagonal_lines_orange_HP" transform="translate(-1020.000000, -1373.000000)" filter="url(#filter-1)">
            <g transform="translate(1020.500000, 1373.500000)" filter="url(#filter-2)" id="Group-29-Copy-4">
                <g transform="translate(137.000000, 137.500000) scale(-1, 1) rotate(-360.000000) translate(-137.000000, -137.500000) translate(0.500000, 0.500000)">
                    <path d="M272.200921,22.2632811 C271.625208,21.6817311 270.67364,21.6817311 270.091961,22.2632811 L24.1191721,268.205244 C23.5434587,268.789776 23.5434587,269.732186 24.1191721,270.313736 C24.4174692,270.611966 24.8022724,270.749153 25.1781267,270.749153 C25.56293,270.749153 25.9417673,270.603019 26.2340984,270.313736 L272.200921,24.3717726 C272.782601,23.7902226 272.782601,22.8448311 272.200921,22.2632811" id="Fill-1" fill="#000000"></path>
                    <path d="M272.202606,68.7062285 C271.629117,68.1216527 270.681224,68.1216527 270.101792,68.7062285 L69.6389014,270.978449 C69.0594688,271.563025 69.0594688,272.513335 69.6389014,273.097911 C69.9301035,273.397693 70.3134205,273.535593 70.6907945,273.535593 C71.0741115,273.535593 71.4574285,273.3887 71.7426876,273.097911 L272.202606,70.8256905 C272.782039,70.2411147 272.782039,69.2938021 272.202606,68.7062285" id="Fill-3" fill="#000000"></path>
                    <path d="M248.977232,1.82937238 C248.401503,1.24783633 247.44991,1.24783633 246.868215,1.82937238 L0.900729806,247.771407 C0.319034825,248.352943 0.319034825,249.295329 0.900729806,249.879848 C1.19306882,250.175089 1.57191632,250.315254 1.95672993,250.315254 C2.33557743,250.315254 2.72039103,250.166142 3.01273004,249.879848 L248.983198,3.93781335 C249.558927,3.3562773 249.558927,2.41090843 248.977232,1.82937238" id="Fill-5" fill="#000000"></path>
                    <g id="Group-9" transform="translate(0.464459, 0.464407)">
                        <mask id="mask-4" fill="white">
                            <use xlink:href="#path-3"></use>
                        </mask>
                        <g id="Clip-8"></g>
                        <path d="M1.49837543,204.986694 C1.88611952,204.986694 2.26785208,204.840092 2.56241736,204.549878 L205.415699,2.59995676 C206.001824,2.01653723 206.001824,1.06810652 205.415699,0.484686991 C204.829574,-0.0987325352 203.876746,-0.0987325352 203.290621,0.484686991 L0.434333499,202.431616 C-0.145779756,203.015036 -0.145779756,203.963466 0.434333499,204.546886 C0.728898779,204.840092 1.11664287,204.986694 1.49837543,204.986694" id="Fill-7" fill="#000000" mask="url(#mask-4)"></path>
                    </g>
                    <path d="M1.8276225,159.784078 C2.11712036,160.076911 2.49228596,160.220339 2.87335968,160.220339 C3.24852527,160.220339 3.62959899,160.073923 3.91909685,159.784078 L158.877258,3.01399364 C159.4533,2.4313163 159.4533,1.48409212 158.877258,0.901414782 C158.301217,0.318737446 157.36478,0.318737446 156.788738,0.901414782 L1.8276225,157.671499 C1.24862678,158.254176 1.24862678,159.198413 1.8276225,159.784078" id="Fill-10" fill="#000000"></path>
                    <g id="Group-14" transform="translate(0.464459, 0.464407)">
                        <mask id="mask-6" fill="white">
                            <use xlink:href="#path-5"></use>
                        </mask>
                        <g id="Clip-13"></g>
                        <path d="M1.51132267,117.702173 C1.9024172,117.702173 2.28744825,117.552455 2.58455883,117.256075 L116.27483,2.67016758 C116.866019,2.07435264 116.866019,1.10577142 116.27483,0.509956482 C115.68364,-0.0919693835 114.722579,-0.085858461 114.131389,0.509956482 L0.438086511,115.092809 C-0.147039417,115.688624 -0.147039417,116.657205 0.438086511,117.25302 C0.735197085,117.552455 1.12629162,117.702173 1.51132267,117.702173" id="Fill-12" fill="#000000" mask="url(#mask-6)"></path>
                    </g>
                    <g id="Group-17" transform="translate(2.322293, 0.464407)">
                        <mask id="mask-8" fill="white">
                            <use xlink:href="#path-7"></use>
                        </mask>
                        <g id="Clip-16"></g>
                        <path d="M1.52963339,73.1130589 C1.9254663,73.1130589 2.31516227,72.9607931 2.61587255,72.659369 L71.6718393,2.71343847 C72.2701914,2.10748279 72.2701914,1.12241637 71.6718393,0.516460689 C71.0734872,-0.0894949931 70.1007815,-0.0894949931 69.5024294,0.516460689 L0.443394232,70.4592837 C-0.148820901,71.0652394 -0.148820901,72.0503058 0.443394232,72.6562615 C0.744104507,72.9607931 1.13993742,73.1130589 1.52963339,73.1130589" id="Fill-15" fill="#000000" mask="url(#mask-8)"></path>
                    </g>
                    <path d="M1.88144064,24.6135593 C2.24189477,24.6135593 2.60802534,24.4744979 2.88617105,24.199213 L24.2012143,2.88592036 C24.7546675,2.33251262 24.7546675,1.43287031 24.2012143,0.879462579 C23.6477611,0.326054847 22.7480449,0.326054847 22.1945918,0.879462579 L0.879548461,22.1927552 C0.326095273,22.746163 0.326095273,23.6458053 0.879548461,24.199213 C1.15485594,24.4773359 1.51531007,24.6135593 1.88144064,24.6135593" id="Fill-18" fill="#000000"></path>
                    <path d="M271.275572,114.216587 C270.705545,113.634019 269.763376,113.634019 269.187442,114.216587 L114.21987,270.98723 C113.649843,271.569798 113.649843,272.516845 114.21987,273.099414 C114.509314,273.392192 114.890316,273.535593 115.268365,273.535593 C115.64346,273.535593 116.024463,273.389204 116.313907,273.099414 L271.281479,116.328771 C271.851506,115.746203 271.851506,114.802143 271.275572,114.216587" id="Fill-20" fill="#000000"></path>
                    <g id="Group-24" transform="translate(155.593621, 155.576271)">
                        <mask id="mask-10" fill="white">
                            <use xlink:href="#path-9"></use>
                        </mask>
                        <g id="Clip-23"></g>
                        <path d="M116.529983,0.769298429 C115.941825,0.176268566 114.971668,0.176268566 114.386542,0.769298429 L0.708398336,114.813503 C0.120240668,115.406533 0.120240668,116.376669 0.708398336,116.963616 C1.00854065,117.261652 1.39053996,117.41067 1.78163449,117.41067 C2.17272903,117.41067 2.55776008,117.258611 2.85487065,116.963616 L116.533015,2.91941183 C117.115109,2.32334079 117.115109,1.36232829 116.529983,0.769298429" id="Fill-22" fill="#000000" mask="url(#mask-10)"></path>
                    </g>
                    <path d="M270.33308,200.61587 C269.734974,200.007139 268.748409,200.007139 268.153386,200.61587 L198.766996,270.872786 C198.175057,271.481517 198.175057,272.477338 198.773162,273.079825 C199.069132,273.385752 199.469924,273.535593 199.867633,273.535593 C200.259177,273.535593 200.653803,273.38263 200.955939,273.079825 L270.33308,202.82291 C270.928102,202.214179 270.928102,201.224601 270.33308,200.61587" id="Fill-25" fill="#000000"></path>
                    <path d="M270.211775,247.015251 L248.900571,268.32721 C248.346923,268.880878 248.346923,269.780943 248.900571,270.334611 C249.178815,270.612865 249.539396,270.749153 249.908495,270.749153 C250.269077,270.749153 250.632497,270.610026 250.910741,270.334611 L272.221944,249.022652 C272.775593,248.468984 272.775593,247.568919 272.221944,247.015251 C271.671135,246.461583 270.759745,246.461583 270.211775,247.015251" id="Fill-27" fill="#000000"></path>
                </g>
            </g>
        </g>
    </g>
</svg>