<?xml version="1.0" encoding="UTF-8"?>
<svg width="242px" height="202px" viewBox="0 0 242 202" version="1.1" xmlns="http://www.w3.org/2000/svg" xmlns:xlink="http://www.w3.org/1999/xlink">
    <title>Group 3 Copy 3</title>
    <defs>
        <filter id="filter-1">
            <feColorMatrix in="SourceGraphic" type="matrix" values="0 0 0 0 0.560784 0 0 0 0 0.776471 0 0 0 0 0.568627 0 0 0 1.000000 0"></feColorMatrix>
        </filter>
        <polygon id="path-2" points="0 0.0349539721 180.815723 0.0349539721 180.815723 149.677278 0 149.677278"></polygon>
        <polygon id="path-4" points="0 0.0443955235 102.520996 0.0443955235 102.520996 85.9438258 0 85.9438258"></polygon>
        <polygon id="path-6" points="0 0.0452667541 63.3480871 0.0452667541 63.3480871 53.3857265 0 53.3857265"></polygon>
        <polygon id="path-8" points="0.234769003 0.236962565 102.741452 0.236962565 102.741452 85.7289775 0.234769003 85.7289775"></polygon>
    </defs>
    <g id="UI" stroke="none" stroke-width="1" fill="none" fill-rule="evenodd">
        <g id="Service-(bathroom)" transform="translate(-1088.000000, -1910.000000)">
            <g id="Group-3-Copy-3" transform="translate(1088.500000, 1910.500000)">
                <g filter="url(#filter-1)" id="Group-29-Copy-4">
                    <g transform="translate(120.500000, 100.500000) scale(-1, 1) rotate(-360.000000) translate(-120.500000, -100.500000) translate(0.500000, 0.500000)">
                        <path d="M239.091284,16.2562127 C238.585599,15.8315763 237.749777,15.8315763 237.238851,16.2562127 L21.1853943,195.838227 C20.6797088,196.265041 20.6797088,196.95317 21.1853943,197.377806 C21.4474075,197.595569 21.7854045,197.695739 22.1155411,197.695739 C22.4535381,197.695739 22.7862949,197.589036 23.0430678,197.377806 L239.091284,17.795792 C239.60221,17.3711556 239.60221,16.6808492 239.091284,16.2562127" id="Fill-1" fill="#000000"></path>
                        <path d="M239.092764,50.1679451 C238.589032,49.7410993 237.756438,49.7410993 237.247486,50.1679451 L61.1682514,197.863167 C60.6592991,198.290013 60.6592991,198.983911 61.1682514,199.410757 C61.4240326,199.629652 61.7607241,199.730344 62.0921956,199.730344 C62.4288872,199.730344 62.7655787,199.623085 63.0161399,199.410757 L239.092764,51.7155348 C239.601717,51.288689 239.601717,50.5969799 239.092764,50.1679451" id="Fill-3" fill="#000000"></path>
                        <path d="M218.69245,1.33577195 C218.186751,0.911145695 217.350906,0.911145695 216.839966,1.33577195 L0.791167955,180.917838 C0.280228464,181.342465 0.280228464,182.030577 0.791167955,182.457381 C1.0479478,182.67296 1.38071352,182.775306 1.71871965,182.775306 C2.05148537,182.775306 2.38949149,182.666427 2.64627134,182.457381 L218.69769,2.87531434 C219.203389,2.45068808 219.203389,1.76039821 218.69245,1.33577195" id="Fill-5" fill="#000000"></path>
                        <g id="Group-9" transform="translate(0.407963, 0.339101)">
                            <mask id="mask-3" fill="white">
                                <use xlink:href="#path-2"></use>
                            </mask>
                            <g id="Clip-8"></g>
                            <path d="M1.3161179,149.677278 C1.65669806,149.677278 1.99199791,149.570231 2.25073322,149.358323 L180.4296,1.89843761 C180.94443,1.47243607 180.94443,0.779910502 180.4296,0.353908967 C179.914769,-0.0720925674 179.07784,-0.0720925674 178.563009,0.353908967 L0.381502581,147.811609 C-0.128047579,148.237611 -0.128047579,148.930137 0.381502581,149.356138 C0.640237896,149.570231 0.980818055,149.677278 1.3161179,149.677278" id="Fill-7" fill="#000000" mask="url(#mask-3)"></path>
                        </g>
                        <path d="M1.60531643,116.671211 C1.85960071,116.885031 2.18913238,116.98976 2.52385353,116.98976 C2.8533852,116.98976 3.18810634,116.88285 3.44239062,116.671211 L139.551944,2.20075924 C140.057918,1.77529964 140.057918,1.08365506 139.551944,0.658195455 C139.04597,0.232735853 138.223439,0.232735853 137.717465,0.658195455 L1.60531643,115.128647 C1.09674787,115.554106 1.09674787,116.243569 1.60531643,116.671211" id="Fill-10" fill="#000000"></path>
                        <g id="Group-14" transform="translate(0.407963, 0.339101)">
                            <mask id="mask-5" fill="white">
                                <use xlink:href="#path-4"></use>
                            </mask>
                            <g id="Clip-13"></g>
                            <path d="M1.32749028,85.9438258 C1.67101334,85.9438258 2.00921047,85.834505 2.27018148,85.6180943 L102.131537,1.94970418 C102.650816,1.51465175 102.650816,0.807412681 102.131537,0.372360256 C101.612258,-0.0671542462 100.768096,-0.0626921701 100.248817,0.372360256 L0.384799089,84.0385193 C-0.129154019,84.4735717 -0.129154019,85.1808108 0.384799089,85.6158632 C0.645770097,85.834505 0.989293159,85.9438258 1.32749028,85.9438258" id="Fill-12" fill="#000000" mask="url(#mask-5)"></path>
                        </g>
                        <g id="Group-17" transform="translate(2.039817, 0.339101)">
                            <mask id="mask-7" fill="white">
                                <use xlink:href="#path-6"></use>
                            </mask>
                            <g id="Clip-16"></g>
                            <path d="M1.34357375,53.3857265 C1.69125883,53.3857265 2.03355344,53.274545 2.2976863,53.054451 L62.9539093,1.98129973 C63.4794798,1.53884274 63.4794798,0.819566496 62.9539093,0.377109501 C62.4283388,-0.0653474947 61.5739499,-0.0653474947 61.0483794,0.377109501 L0.389461196,51.4479918 C-0.13071881,51.8904488 -0.13071881,52.609725 0.389461196,53.052182 C0.653594049,53.274545 1.00127913,53.3857265 1.34357375,53.3857265" id="Fill-15" fill="#000000" mask="url(#mask-7)"></path>
                        </g>
                        <path d="M1.65258831,17.9723399 C1.96919796,17.9723399 2.2907936,17.8708 2.53510656,17.6697924 L21.2574571,2.10724264 C21.7435901,1.70315513 21.7435901,1.04625389 21.2574571,0.642166385 C20.7713242,0.238078876 19.9810466,0.238078876 19.4949136,0.642166385 L0.77256304,16.2047161 C0.286430102,16.6088036 0.286430102,17.2657048 0.77256304,17.6697924 C1.01438301,17.8728722 1.33099267,17.9723399 1.65258831,17.9723399" id="Fill-18" fill="#000000"></path>
                        <path d="M238.278492,83.3987196 C237.777801,82.9733395 236.950234,82.9733395 236.444355,83.3987196 L100.326536,197.869579 C99.8258448,198.294959 99.8258448,198.986474 100.326536,199.411854 C100.580772,199.625635 100.915431,199.730344 101.247495,199.730344 C101.576965,199.730344 101.911624,199.623453 102.16586,199.411854 L238.28368,84.9409949 C238.784371,84.5156149 238.784371,83.8262811 238.278492,83.3987196" id="Fill-20" fill="#000000"></path>
                        <g id="Group-24" transform="translate(136.667718, 113.598752)">
                            <mask id="mask-9" fill="white">
                                <use xlink:href="#path-8"></use>
                            </mask>
                            <g id="Clip-23"></g>
                            <path d="M102.355654,0.561726676 C101.839038,0.128707861 100.986888,0.128707861 100.472934,0.561726676 L0.622231061,83.8345757 C0.105614983,84.2675945 0.105614983,84.9759689 0.622231061,85.4045465 C0.885865039,85.6221662 1.22139919,85.7309761 1.56492225,85.7309761 C1.90844532,85.7309761 2.24664244,85.6199456 2.50761345,85.4045465 L102.358317,2.13169746 C102.869607,1.69645803 102.869607,0.994745491 102.355654,0.561726676" id="Fill-22" fill="#000000" mask="url(#mask-9)"></path>
                        </g>
                        <path d="M237.450641,146.485787 C236.925287,146.041304 236.058724,146.041304 235.536078,146.485787 L174.589624,197.786014 C174.069686,198.230497 174.069686,198.957626 174.59504,199.397551 C174.855009,199.620932 175.20705,199.730344 175.556383,199.730344 C175.9003,199.730344 176.246925,199.618653 176.51231,199.397551 L237.450641,148.097325 C237.973287,147.652841 237.973287,146.930271 237.450641,146.485787" id="Fill-25" fill="#000000"></path>
                        <path d="M237.344091,180.365708 L218.625113,195.927284 C218.138809,196.331562 218.138809,196.988772 218.625113,197.393049 C218.869513,197.596225 219.186234,197.695739 219.510437,197.695739 C219.827158,197.695739 220.146373,197.594151 220.390772,197.393049 L239.10975,181.831473 C239.596055,181.427196 239.596055,180.769986 239.10975,180.365708 C238.62594,179.961431 237.825408,179.961431 237.344091,180.365708" id="Fill-27" fill="#000000"></path>
                    </g>
                </g>
                <rect id="Rectangle" stroke="#8FC691" stroke-width="2" x="1.5" y="1.5" width="237" height="197"></rect>
            </g>
        </g>
    </g>
</svg>