<?xml version="1.0" encoding="UTF-8"?>
<svg width="251px" height="251px" viewBox="0 0 251 251" version="1.1" xmlns="http://www.w3.org/2000/svg" xmlns:xlink="http://www.w3.org/1999/xlink">
    <title>Group 3 Copy 3</title>
    <defs>
        <filter id="filter-1">
            <feColorMatrix in="SourceGraphic" type="matrix" values="0 0 0 0 0.486275 0 0 0 0 0.705882 0 0 0 0 0.494118 0 0 0 1.000000 0"></feColorMatrix>
        </filter>
        <filter id="filter-2">
            <feColorMatrix in="SourceGraphic" type="matrix" values="0 0 0 0 0.560784 0 0 0 0 0.776471 0 0 0 0 0.568627 0 0 0 1.000000 0"></feColorMatrix>
        </filter>
        <polygon id="path-3" points="0 0.0438799428 189.064988 0.0438799428 189.064988 187.8994 0 187.8994"></polygon>
        <polygon id="path-5" points="0 0.0557325224 107.19826 0.0557325224 107.19826 107.890747 0 107.890747"></polygon>
        <polygon id="path-7" points="0 0.0568262336 66.2381854 0.0568262336 66.2381854 67.0184957 0 67.0184957"></polygon>
        <polygon id="path-9" points="0.245479752 0.297474169 107.428774 0.297474169 107.428774 107.621034 0.245479752 107.621034"></polygon>
    </defs>
    <g id="UI" stroke="none" stroke-width="1" fill="none" fill-rule="evenodd">
        <g id="Group-3-Copy-3" transform="translate(-1095.000000, -5479.000000)" filter="url(#filter-1)">
            <g transform="translate(1220.500000, 5604.500000) scale(-1, 1) translate(-1220.500000, -5604.500000) translate(1095.000000, 5479.000000)" filter="url(#filter-2)" id="Group-29-Copy-4">
                <g transform="translate(125.500000, 125.500000) scale(-1, 1) rotate(-360.000000) translate(-125.500000, -125.500000) ">
                    <path d="M249.999227,20.4074571 C249.470471,19.874384 248.596517,19.874384 248.062281,20.4074571 L22.151925,245.848174 C21.6231689,246.38398 21.6231689,247.247832 22.151925,247.780905 C22.4258918,248.054276 22.7793091,248.180027 23.1245074,248.180027 C23.4779247,248.180027 23.8258626,248.046075 24.0943502,247.780905 L249.999227,22.3401888 C250.533462,21.8071157 250.533462,20.9405302 249.999227,20.4074571" id="Fill-1" fill="#000000"></path>
                    <path d="M250.000775,62.9790101 C249.474061,62.4431634 248.603482,62.4431634 248.07131,62.9790101 L63.9589001,248.390209 C63.4267281,248.926056 63.4267281,249.79715 63.9589001,250.332997 C64.2263506,250.60779 64.5784029,250.734195 64.924997,250.734195 C65.2770492,250.734195 65.6291015,250.599546 65.8910938,250.332997 L250.000775,64.9217979 C250.532947,64.3859512 250.532947,63.5176047 250.000775,62.9790101" id="Fill-3" fill="#000000"></path>
                    <path d="M228.669746,1.67687943 C228.140976,1.1438191 227.266998,1.1438191 226.732748,1.67687943 L0.827263016,227.117661 C0.293013188,227.650722 0.293013188,228.514553 0.827263016,229.050347 C1.0957578,229.320978 1.44370513,229.449459 1.79713194,229.449459 C2.14507926,229.449459 2.49850607,229.312777 2.76700086,229.050347 L228.675226,3.60956484 C229.203996,3.07650451 229.203996,2.20993977 228.669746,1.67687943" id="Fill-5" fill="#000000"></path>
                    <g id="Group-9" transform="translate(0.426576, 0.425695)">
                        <mask id="mask-4" fill="white">
                            <use xlink:href="#path-3"></use>
                        </mask>
                        <g id="Clip-8"></g>
                        <path d="M1.37616249,187.8994 C1.73228077,187.8994 2.08287784,187.765018 2.3534173,187.498996 L188.661249,2.38322939 C189.199568,1.84844259 189.199568,0.979071224 188.661249,0.444284421 C188.122931,-0.090502382 187.247819,-0.090502382 186.7095,0.444284421 L0.398907684,185.557308 C-0.13388943,186.092095 -0.13388943,186.961466 0.398907684,187.496253 C0.669447151,187.765018 1.02556543,187.8994 1.37616249,187.8994" id="Fill-7" fill="#000000" mask="url(#mask-4)"></path>
                    </g>
                    <path d="M1.67855498,146.464786 C1.94444035,146.733209 2.28900608,146.864681 2.63899804,146.864681 C2.98356377,146.864681 3.33355573,146.73047 3.5994411,146.464786 L145.918653,2.76275296 C146.447711,2.22864648 146.447711,1.36038107 145.918653,0.826274589 C145.389595,0.292168109 144.529538,0.292168109 144.00048,0.826274589 L1.67855498,144.528308 C1.14678425,145.062414 1.14678425,145.927941 1.67855498,146.464786" id="Fill-10" fill="#000000"></path>
                    <g id="Group-14" transform="translate(0.426576, 0.425695)">
                        <mask id="mask-6" fill="white">
                            <use xlink:href="#path-5"></use>
                        </mask>
                        <g id="Clip-13"></g>
                        <path d="M1.38805371,107.890747 C1.74724915,107.890747 2.10087568,107.75351 2.37375283,107.481836 L106.791033,2.44758758 C107.334003,1.90143862 107.334003,1.01359646 106.791033,0.467447496 C106.248063,-0.0843029935 105.365389,-0.0787014657 104.822419,0.467447496 L0.402354586,105.498895 C-0.135046349,106.045044 -0.135046349,106.932886 0.402354586,107.479035 C0.675231745,107.75351 1.03442719,107.890747 1.38805371,107.890747" id="Fill-12" fill="#000000" mask="url(#mask-6)"></path>
                    </g>
                    <g id="Group-17" transform="translate(2.132878, 0.425695)">
                        <mask id="mask-8" fill="white">
                            <use xlink:href="#path-7"></use>
                        </mask>
                        <g id="Clip-16"></g>
                        <path d="M1.40487094,67.0184957 C1.76841829,67.0184957 2.12632924,66.8789225 2.40251249,66.6026245 L65.8260241,2.48725149 C66.3755724,1.9318071 66.3755724,1.02885391 65.8260241,0.473409525 C65.2764758,-0.0820348635 64.3831075,-0.0820348635 63.8335592,0.473409525 L0.40722939,64.5859341 C-0.136682529,65.1413785 -0.136682529,66.0443317 0.40722939,66.5997761 C0.683412645,66.8789225 1.04695999,67.0184957 1.40487094,67.0184957" id="Fill-15" fill="#000000" mask="url(#mask-8)"></path>
                    </g>
                    <path d="M1.72798352,22.5618206 C2.0590377,22.5618206 2.39530534,22.4343511 2.65076447,22.1820134 L22.2272755,2.64535562 C22.7355871,2.13807888 22.7355871,1.31342901 22.2272755,0.806152279 C21.718964,0.298875545 20.8926319,0.298875545 20.3843204,0.806152279 L0.807809299,20.3428101 C0.29949776,20.8500868 0.29949776,21.6747367 0.807809299,22.1820134 C1.06066171,22.4369525 1.39171589,22.5618206 1.72798352,22.5618206" id="Fill-18" fill="#000000"></path>
                    <path d="M249.149352,104.695713 C248.625819,104.161707 247.760497,104.161707 247.231538,104.695713 L104.903683,248.398259 C104.38015,248.932265 104.38015,249.800368 104.903683,250.334375 C105.169519,250.602747 105.519445,250.734195 105.866659,250.734195 C106.21116,250.734195 106.561087,250.600009 106.826923,250.334375 L249.154778,106.63183 C249.678311,106.097823 249.678311,105.232459 249.149352,104.695713" id="Fill-20" fill="#000000"></path>
                    <g id="Group-24" transform="translate(142.902841, 142.607734)">
                        <mask id="mask-10" fill="white">
                            <use xlink:href="#path-9"></use>
                        </mask>
                        <g id="Clip-23"></g>
                        <path d="M107.025375,0.7051712 C106.485189,0.161575159 105.594162,0.161575159 105.056761,0.7051712 L0.650618799,105.242871 C0.110433403,105.786467 0.110433403,106.675735 0.650618799,107.213755 C0.926280418,107.486947 1.27712248,107.623543 1.63631792,107.623543 C1.99551337,107.623543 2.34913989,107.48416 2.62201705,107.213755 L107.028159,2.67605531 C107.562776,2.12967159 107.562776,1.24876724 107.025375,0.7051712" id="Fill-22" fill="#000000" mask="url(#mask-10)"></path>
                    </g>
                    <path d="M248.283733,183.892919 C247.734412,183.334931 246.828314,183.334931 246.281824,183.892919 L182.554839,248.293354 C182.011181,248.851342 182.011181,249.764154 182.560502,250.316419 C182.832332,250.596844 183.200434,250.734195 183.565704,250.734195 C183.925312,250.734195 184.287751,250.593983 184.565243,250.316419 L248.283733,185.915985 C248.830224,185.357996 248.830224,184.450908 248.283733,183.892919" id="Fill-25" fill="#000000"></path>
                    <path d="M248.172323,226.424537 L228.599338,245.959973 C228.090847,246.467488 228.090847,247.292526 228.599338,247.800041 C228.854887,248.0551 229.186058,248.180027 229.525052,248.180027 C229.856223,248.180027 230.190002,248.052497 230.445551,247.800041 L250.018535,228.264606 C250.527026,227.75709 250.527026,226.932053 250.018535,226.424537 C249.512652,225.917022 248.675598,225.917022 248.172323,226.424537" id="Fill-27" fill="#000000"></path>
                </g>
            </g>
        </g>
    </g>
</svg>