<?xml version="1.0" encoding="UTF-8"?>
<svg width="297px" height="298px" viewBox="0 0 297 298" version="1.1" xmlns="http://www.w3.org/2000/svg" xmlns:xlink="http://www.w3.org/1999/xlink">
    <title>grey_diagonal</title>
    <defs>
        <filter id="filter-1">
            <feColorMatrix in="SourceGraphic" type="matrix" values="0 0 0 0 0.356912 0 0 0 0 0.356912 0 0 0 0 0.356912 0 0 0 1.000000 0"></feColorMatrix>
        </filter>
        <filter id="filter-2">
            <feColorMatrix in="SourceGraphic" type="matrix" values="0 0 0 0 0.560784 0 0 0 0 0.776471 0 0 0 0 0.568627 0 0 0 1.000000 0"></feColorMatrix>
        </filter>
        <polygon id="path-3" points="0 0.0515392133 221.578012 0.0515392133 221.578012 220.697354 0 220.697354"></polygon>
        <polygon id="path-5" points="0 0.0654606678 125.632872 0.0654606678 125.632872 126.723142 0 126.723142"></polygon>
        <polygon id="path-7" points="0 0.0667452869 77.6289973 0.0667452869 77.6289973 78.7166145 0 78.7166145"></polygon>
        <polygon id="path-9" points="0.287694279 0.349398465 125.903027 0.349398465 125.903027 126.406351 0.287694279 126.406351"></polygon>
    </defs>
    <g id="UI" stroke="none" stroke-width="1" fill="none" fill-rule="evenodd">
        <g id="grey_diagonal" transform="translate(-89.000000, -2611.000000)" filter="url(#filter-1)">
            <g transform="translate(237.500000, 2760.000000) scale(-1, -1) translate(-237.500000, -2760.000000) translate(89.500000, 2611.500000)">
                <g filter="url(#filter-2)" id="Group-29-Copy-4">
                    <g transform="translate(148.500000, 149.000000) scale(-1, 1) rotate(-360.000000) translate(-148.500000, -149.000000) translate(1.500000, 1.500000)">
                        <path d="M292.990957,23.969591 C292.371272,23.3434697 291.347026,23.3434697 290.720919,23.969591 L25.961335,288.761121 C25.3416501,289.390453 25.3416501,290.40509 25.961335,291.031212 C26.2824153,291.3523 26.6966089,291.5 27.10117,291.5 C27.5153636,291.5 27.9231355,291.342667 28.2377942,291.031212 L292.990957,26.2396822 C293.617063,25.6135609 293.617063,24.5957123 292.990957,23.969591" id="Fill-1" fill="#000000"></path>
                        <path d="M292.992771,73.9720343 C292.375479,73.3426552 291.355189,73.3426552 290.731501,73.9720343 L74.9577491,291.74687 C74.3340609,292.376249 74.3340609,293.399394 74.9577491,294.028773 C75.2711925,294.351531 75.6837862,294.5 76.0899832,294.5 C76.502577,294.5 76.9151708,294.341848 77.2222173,294.028773 L292.992771,76.2539368 C293.616459,75.6245578 293.616459,74.6046409 292.992771,73.9720343" id="Fill-3" fill="#000000"></path>
                        <path d="M267.9935,1.96957975 C267.373798,1.34347342 266.349525,1.34347342 265.723401,1.96957975 L0.969525329,266.761186 C0.343401919,267.387292 0.343401919,268.401906 0.969525329,269.031223 C1.28419248,269.349092 1.69197542,269.5 2.10618013,269.5 C2.51396307,269.5 2.92816779,269.33946 3.24283494,269.031223 L267.999922,4.23961656 C268.619623,3.61351023 268.619623,2.59568608 267.9935,1.96957975" id="Fill-5" fill="#000000"></path>
                        <g id="Group-9" transform="translate(0.499933, 0.500000)">
                            <mask id="mask-4" fill="white">
                                <use xlink:href="#path-3"></use>
                            </mask>
                            <g id="Clip-8"></g>
                            <path d="M1.61281765,220.697354 C2.03017668,220.697354 2.44106503,220.539515 2.75812848,220.227058 L221.104844,2.79922352 C221.735735,2.17108936 221.735735,1.1499687 221.104844,0.521834534 C220.473952,-0.106299627 219.448349,-0.106299627 218.817457,0.521834534 L0.467506821,217.946448 C-0.156914054,218.574582 -0.156914054,219.595703 0.467506821,220.223837 C0.784570271,220.539515 1.2019293,220.697354 1.61281765,220.697354" id="Fill-7" fill="#000000" mask="url(#mask-4)"></path>
                        </g>
                        <path d="M1.96721181,172.030303 C2.2788208,172.345579 2.68264062,172.5 3.09281981,172.5 C3.49663963,172.5 3.90681882,172.342362 4.21842781,172.030303 L171.011912,3.24499315 C171.63195,2.61765806 171.63195,1.5978364 171.011912,0.970501316 C170.391874,0.343166228 169.383914,0.343166228 168.763876,0.970501316 L1.96721181,169.755811 C1.34399382,170.383146 1.34399382,171.399751 1.96721181,172.030303" id="Fill-10" fill="#000000"></path>
                        <g id="Group-14" transform="translate(0.499933, 0.500000)">
                            <mask id="mask-6" fill="white">
                                <use xlink:href="#path-5"></use>
                            </mask>
                            <g id="Clip-13"></g>
                            <path d="M1.62675377,126.723142 C2.04771914,126.723142 2.46215791,126.56195 2.78196106,126.242855 L125.155615,2.87481546 C125.791958,2.23333587 125.791958,1.19052033 125.155615,0.549040738 C124.519272,-0.0990181319 123.484806,-0.092438854 122.848463,0.549040738 L0.471546479,123.91379 C-0.158269925,124.55527 -0.158269925,125.598085 0.471546479,126.239565 C0.791349627,126.56195 1.212315,126.723142 1.62675377,126.723142" id="Fill-12" fill="#000000" mask="url(#mask-6)"></path>
                        </g>
                        <g id="Group-17" transform="translate(2.499664, 0.500000)">
                            <mask id="mask-8" fill="white">
                                <use xlink:href="#path-7"></use>
                            </mask>
                            <g id="Clip-16"></g>
                            <path d="M1.64646302,78.7166145 C2.07252867,78.7166145 2.49198866,78.5526787 2.81566644,78.2281527 L77.1459577,2.92140273 C77.7900105,2.26900519 77.7900105,1.20844098 77.1459577,0.556043443 C76.501905,-0.0963540984 75.4549065,-0.0963540984 74.8108537,0.556043443 L0.477259591,75.8594478 C-0.160187475,76.5118454 -0.160187475,77.5724096 0.477259591,78.2248071 C0.800937376,78.5526787 1.22700303,78.7166145 1.64646302,78.7166145" id="Fill-15" fill="#000000" mask="url(#mask-8)"></path>
                        </g>
                        <path d="M2.02514044,26.5 C2.41312517,26.5 2.80721989,26.3502806 3.10660968,26.0538972 L26.0496434,3.10710403 C26.645368,2.51128184 26.645368,1.54268884 26.0496434,0.946866645 C25.4539189,0.351044452 24.4854846,0.351044452 23.88976,0.946866645 L0.946726205,23.8936598 C0.351001627,24.489482 0.351001627,25.458075 0.946726205,26.0538972 C1.243061,26.3533361 1.63104572,26.5 2.02514044,26.5" id="Fill-18" fill="#000000"></path>
                        <path d="M291.994932,122.970413 C291.381368,122.343196 290.367238,122.343196 289.747316,122.970413 L122.943702,291.756324 C122.330138,292.383542 122.330138,293.403173 122.943702,294.030391 C123.255253,294.345608 123.665355,294.5 124.072279,294.5 C124.476023,294.5 124.886125,294.342391 125.197676,294.030391 L292.00129,125.24448 C292.614854,124.617262 292.614854,123.600848 291.994932,122.970413" id="Fill-20" fill="#000000"></path>
                        <g id="Group-24" transform="translate(167.477478, 167.500000)">
                            <mask id="mask-10" fill="white">
                                <use xlink:href="#path-9"></use>
                            </mask>
                            <g id="Clip-23"></g>
                            <path d="M125.430256,0.828259258 C124.797176,0.1897782 123.752921,0.1897782 123.123105,0.828259258 L0.762504055,123.613078 C0.129424354,124.251559 0.129424354,125.296049 0.762504055,125.927981 C1.0855705,126.248859 1.49674598,126.409298 1.91771135,126.409298 C2.33867671,126.409298 2.75311549,126.245584 3.07291864,125.927981 L125.433519,3.14316237 C126.060072,2.50140705 126.060072,1.46674031 125.430256,0.828259258" id="Fill-22" fill="#000000" mask="url(#mask-10)"></path>
                        </g>
                        <path d="M290.980454,215.991539 C290.336667,215.336154 289.27475,215.336154 288.634281,215.991539 L213.94833,291.633109 C213.311179,292.288494 213.311179,293.360638 213.954967,294.009301 C214.273542,294.338674 214.704946,294.5 215.133031,294.5 C215.554479,294.5 215.979246,294.335313 216.304458,294.009301 L290.980454,218.367732 C291.620923,217.712346 291.620923,216.646925 290.980454,215.991539" id="Fill-25" fill="#000000"></path>
                        <path d="M290.849885,265.947077 L267.910984,288.892434 C267.315049,289.488536 267.315049,290.457585 267.910984,291.053687 C268.210479,291.353267 268.598601,291.5 268.99589,291.5 C269.384012,291.5 269.77519,291.35021 270.074685,291.053687 L293.013586,268.10833 C293.60952,267.512228 293.60952,266.543179 293.013586,265.947077 C292.420707,265.350974 291.439707,265.350974 290.849885,265.947077" id="Fill-27" fill="#000000"></path>
                    </g>
                </g>
                <rect id="Rectangle" stroke="#5B5B5B" stroke-width="3" x="2" y="2" width="292" height="293"></rect>
            </g>
        </g>
    </g>
</svg>