<?xml version="1.0" encoding="UTF-8"?>
<svg width="173px" height="71px" viewBox="0 0 173 71" version="1.1" xmlns="http://www.w3.org/2000/svg" xmlns:xlink="http://www.w3.org/1999/xlink">
    <title>Group</title>
    <g id="UI" stroke="none" stroke-width="1" fill="none" fill-rule="evenodd">
        <g id="our-work" transform="translate(-144.000000, -26.000000)">
            <g id="Group" transform="translate(144.000000, 26.000000)">
                <rect id="Rectangle-Copy-20" stroke="#91C793" stroke-width="3" x="1.5" y="1.5" width="170" height="68" rx="3"></rect>
                <path d="M71.684,54.672 L71.684,47.808 C71.684,47.352 71.816,46.926 72.08,46.53 C72.344,46.134 72.692,45.812 73.124,45.564 C73.556,45.316 74.012,45.192 74.492,45.192 C74.804,45.192 75.142,45.246 75.506,45.354 C75.87,45.462 76.188,45.608 76.46,45.792 L76.46,45.792 L77.996,42.684 C77.684,42.484 77.296,42.32 76.832,42.192 C76.368,42.064 75.92,42 75.488,42 C74.728,42 74.018,42.186 73.358,42.558 C72.698,42.93 72.14,43.46 71.684,44.148 L71.684,44.148 L71.684,42.384 L68,42.384 L68,54.672 L71.684,54.672 Z M87.612,55.056 C88.972,55.056 90.196,54.778 91.284,54.222 C92.372,53.666 93.234,52.898 93.87,51.918 C94.506,50.938 94.824,49.808 94.824,48.528 C94.824,47.248 94.506,46.118 93.87,45.138 C93.234,44.158 92.372,43.39 91.284,42.834 C90.196,42.278 88.972,42 87.612,42 C86.26,42 85.038,42.278 83.946,42.834 C82.854,43.39 81.99,44.158 81.354,45.138 C80.718,46.118 80.4,47.248 80.4,48.528 C80.4,49.808 80.72,50.938 81.36,51.918 C82,52.898 82.864,53.666 83.952,54.222 C85.04,54.778 86.26,55.056 87.612,55.056 Z M87.624,51.912 C86.992,51.912 86.422,51.768 85.914,51.48 C85.406,51.192 85.004,50.794 84.708,50.286 C84.412,49.778 84.264,49.192 84.264,48.528 C84.264,47.864 84.412,47.278 84.708,46.77 C85.004,46.262 85.406,45.864 85.914,45.576 C86.422,45.288 86.992,45.144 87.624,45.144 C88.248,45.144 88.816,45.288 89.328,45.576 C89.84,45.864 90.244,46.262 90.54,46.77 C90.836,47.278 90.984,47.864 90.984,48.528 C90.984,49.192 90.836,49.778 90.54,50.286 C90.244,50.794 89.84,51.192 89.328,51.48 C88.816,51.768 88.248,51.912 87.624,51.912 Z M105.808,55.056 C107.168,55.056 108.392,54.778 109.48,54.222 C110.568,53.666 111.43,52.898 112.066,51.918 C112.702,50.938 113.02,49.808 113.02,48.528 C113.02,47.248 112.702,46.118 112.066,45.138 C111.43,44.158 110.568,43.39 109.48,42.834 C108.392,42.278 107.168,42 105.808,42 C104.456,42 103.234,42.278 102.142,42.834 C101.05,43.39 100.186,44.158 99.55,45.138 C98.914,46.118 98.596,47.248 98.596,48.528 C98.596,49.808 98.916,50.938 99.556,51.918 C100.196,52.898 101.06,53.666 102.148,54.222 C103.236,54.778 104.456,55.056 105.808,55.056 Z M105.82,51.912 C105.188,51.912 104.618,51.768 104.11,51.48 C103.602,51.192 103.2,50.794 102.904,50.286 C102.608,49.778 102.46,49.192 102.46,48.528 C102.46,47.864 102.608,47.278 102.904,46.77 C103.2,46.262 103.602,45.864 104.11,45.576 C104.618,45.288 105.188,45.144 105.82,45.144 C106.444,45.144 107.012,45.288 107.524,45.576 C108.036,45.864 108.44,46.262 108.736,46.77 C109.032,47.278 109.18,47.864 109.18,48.528 C109.18,49.192 109.032,49.778 108.736,50.286 C108.44,50.794 108.036,51.192 107.524,51.48 C107.012,51.768 106.444,51.912 105.82,51.912 Z M121.52,54.672 L121.52,47.196 C121.52,46.78 121.624,46.4 121.832,46.056 C122.04,45.712 122.33,45.44 122.702,45.24 C123.074,45.04 123.496,44.94 123.968,44.94 C124.68,44.94 125.238,45.168 125.642,45.624 C126.046,46.08 126.248,46.688 126.248,47.448 L126.248,47.448 L126.248,54.672 L129.932,54.672 L129.932,47.16 C129.932,46.752 130.036,46.38 130.244,46.044 C130.452,45.708 130.738,45.44 131.102,45.24 C131.466,45.04 131.888,44.94 132.368,44.94 C133.064,44.94 133.62,45.17 134.036,45.63 C134.452,46.09 134.66,46.72 134.66,47.52 L134.66,47.52 L134.66,54.672 L138.344,54.672 L138.344,46.512 C138.344,45.592 138.146,44.794 137.75,44.118 C137.354,43.442 136.812,42.92 136.124,42.552 C135.436,42.184 134.648,42 133.76,42 C132.872,42 132.084,42.196 131.396,42.588 C130.708,42.98 130.064,43.564 129.464,44.34 C129.136,43.628 128.592,43.06 127.832,42.636 C127.072,42.212 126.22,42 125.276,42 C124.58,42 123.932,42.14 123.332,42.42 C122.732,42.7 122.128,43.144 121.52,43.752 L121.52,43.752 L121.52,42.384 L117.836,42.384 L117.836,54.672 L121.52,54.672 Z M146.796,55.056 C147.244,55.056 147.648,54.948 148.008,54.732 C148.368,54.516 148.656,54.226 148.872,53.862 C149.088,53.498 149.196,53.096 149.196,52.656 C149.196,52.208 149.088,51.804 148.872,51.444 C148.656,51.084 148.368,50.796 148.008,50.58 C147.648,50.364 147.244,50.256 146.796,50.256 C146.356,50.256 145.952,50.364 145.584,50.58 C145.216,50.796 144.926,51.084 144.714,51.444 C144.502,51.804 144.396,52.208 144.396,52.656 C144.396,53.096 144.502,53.498 144.714,53.862 C144.926,54.226 145.214,54.516 145.578,54.732 C145.942,54.948 146.348,55.056 146.796,55.056 Z" id="room." fill="#91C793" fill-rule="nonzero"></path>
                <path d="M27.684,29.672 L27.684,22.808 C27.684,22.352 27.816,21.926 28.08,21.53 C28.344,21.134 28.692,20.812 29.124,20.564 C29.556,20.316 30.012,20.192 30.492,20.192 C30.804,20.192 31.142,20.246 31.506,20.354 C31.87,20.462 32.188,20.608 32.46,20.792 L32.46,20.792 L33.996,17.684 C33.684,17.484 33.296,17.32 32.832,17.192 C32.368,17.064 31.92,17 31.488,17 C30.728,17 30.018,17.186 29.358,17.558 C28.698,17.93 28.14,18.46 27.684,19.148 L27.684,19.148 L27.684,17.384 L24,17.384 L24,29.672 L27.684,29.672 Z M44.196,30.056 C45.492,30.056 46.668,29.776 47.724,29.216 C48.78,28.656 49.596,27.88 50.172,26.888 L50.172,26.888 L47.52,25.556 C47.064,26.1 46.59,26.496 46.098,26.744 C45.606,26.992 45.04,27.116 44.4,27.116 C43.72,27.116 43.124,26.986 42.612,26.726 C42.1,26.466 41.702,26.104 41.418,25.64 C41.134,25.176 40.992,24.632 40.992,24.008 L40.992,24.008 L50.412,24.008 C50.436,23.8 50.45,23.658 50.454,23.582 C50.458,23.506 50.46,23.416 50.46,23.312 C50.46,22.056 50.19,20.956 49.65,20.012 C49.11,19.068 48.358,18.33 47.394,17.798 C46.43,17.266 45.308,17 44.028,17 C43.068,17 42.176,17.166 41.352,17.498 C40.528,17.83 39.804,18.294 39.18,18.89 C38.556,19.486 38.07,20.18 37.722,20.972 C37.374,21.764 37.2,22.616 37.2,23.528 C37.2,24.768 37.508,25.88 38.124,26.864 C38.74,27.848 39.574,28.626 40.626,29.198 C41.678,29.77 42.868,30.056 44.196,30.056 Z M46.836,21.968 L41.124,21.968 C41.18,21.496 41.332,21.088 41.58,20.744 C41.828,20.4 42.156,20.136 42.564,19.952 C42.972,19.768 43.444,19.676 43.98,19.676 C44.484,19.676 44.936,19.768 45.336,19.952 C45.736,20.136 46.066,20.4 46.326,20.744 C46.586,21.088 46.756,21.496 46.836,21.968 L46.836,21.968 Z" id="re" fill="#91C793" fill-rule="nonzero"></path>
                <line x1="69.5" y1="17.5" x2="50.4375" y2="54.5" id="Path-20" stroke="#91C793" stroke-width="3" stroke-linecap="round" stroke-linejoin="round"></line>
            </g>
        </g>
    </g>
</svg>