<?xml version="1.0" encoding="UTF-8"?>
<svg width="277px" height="277px" viewBox="0 0 277 277" version="1.1" xmlns="http://www.w3.org/2000/svg" xmlns:xlink="http://www.w3.org/1999/xlink">
    <title>orange_diagonal_element</title>
    <defs>
        <filter id="filter-1">
            <feColorMatrix in="SourceGraphic" type="matrix" values="0 0 0 0 1.000000 0 0 0 0 0.627451 0 0 0 0 0.192157 0 0 0 1.000000 0"></feColorMatrix>
        </filter>
        <filter id="filter-2">
            <feColorMatrix in="SourceGraphic" type="matrix" values="0 0 0 0 0.560784 0 0 0 0 0.776471 0 0 0 0 0.568627 0 0 0 1.000000 0"></feColorMatrix>
        </filter>
        <polygon id="path-3" points="0 0.0483944477 208.117439 0.0483944477 208.117439 207.231074 0 207.231074"></polygon>
        <polygon id="path-5" points="0 0.0614664576 118.00084 0.0614664576 118.00084 118.990882 0 118.990882"></polygon>
        <polygon id="path-7" points="0 0.0626726931 72.9131374 0.0626726931 72.9131374 73.9135668 0 73.9135668"></polygon>
        <polygon id="path-9" points="0.270217229 0.328079236 118.254583 0.328079236 118.254583 118.693421 0.270217229 118.693421"></polygon>
    </defs>
    <g id="UI" stroke="none" stroke-width="1" fill="none" fill-rule="evenodd">
        <g id="orange_diagonal_element" transform="translate(-579.000000, -2820.000000)" filter="url(#filter-1)">
            <g transform="translate(579.000000, 2820.000000)">
                <g filter="url(#filter-2)" id="Group-29-Copy-4">
                    <g transform="translate(138.500000, 138.500000) scale(-1, 1) rotate(-360.000000) translate(-138.500000, -138.500000) translate(0.000000, 0.000000)">
                        <path d="M275.19214,22.5070397 C274.6101,21.9191224 273.648076,21.9191224 273.060004,22.5070397 L24.384218,271.141798 C23.8021781,271.73273 23.8021781,272.685458 24.384218,273.273375 C24.685793,273.574871 25.0748249,273.713559 25.4548095,273.713559 C25.8438413,273.713559 26.2268416,273.565826 26.5223852,273.273375 L275.19214,24.6386169 C275.780212,24.0506995 275.780212,23.094957 275.19214,22.5070397" id="Fill-1" fill="#000000"></path>
                        <path d="M275.193844,69.4584864 C274.614052,68.8675102 273.655743,68.8675102 273.069943,69.4584864 L70.4041641,273.945366 C69.8183641,274.536342 69.8183641,275.497058 70.4041641,276.088034 C70.6985662,276.391099 71.0860954,276.530508 71.4676165,276.530508 C71.8551457,276.530508 72.2426749,276.382007 72.5310688,276.088034 L275.193844,71.6011542 C275.779644,71.010178 275.779644,70.0524933 275.193844,69.4584864" id="Fill-3" fill="#000000"></path>
                        <path d="M251.713246,1.849402 C251.13119,1.26149877 250.16914,1.26149877 249.581053,1.849402 L0.910627936,250.484232 C0.322540702,251.072136 0.322540702,252.02484 0.910627936,252.615758 C1.20617947,252.914232 1.58919013,253.055932 1.97823245,253.055932 C2.36124311,253.055932 2.75028544,252.905188 3.04583697,252.615758 L251.719278,3.98092809 C252.301333,3.39302486 252.301333,2.43730524 251.713246,1.849402" id="Fill-5" fill="#000000"></path>
                        <g id="Group-9" transform="translate(0.469563, 0.469492)">
                            <mask id="mask-4" fill="white">
                                <use xlink:href="#path-3"></use>
                            </mask>
                            <g id="Clip-8"></g>
                            <path d="M1.51484109,207.231074 C1.90684611,207.231074 2.29277353,207.082866 2.59057579,206.789475 L207.673014,2.62842344 C208.26558,2.03861611 208.26558,1.07980111 207.673014,0.489993783 C207.080449,-0.0998135484 206.117149,-0.0998135484 205.524584,0.489993783 L0.439106395,204.648021 C-0.147381731,205.237828 -0.147381731,206.196643 0.439106395,206.78645 C0.736908655,207.082866 1.12891367,207.231074 1.51484109,207.231074" id="Fill-7" fill="#000000" mask="url(#mask-4)"></path>
                        </g>
                        <path d="M1.84770627,161.533539 C2.14038542,161.829578 2.51967372,161.974576 2.90493506,161.974576 C3.28422335,161.974576 3.66948469,161.826557 3.96216385,161.533539 L160.623162,3.04699357 C161.205534,2.45793655 161.205534,1.5003413 160.623162,0.911284287 C160.040791,0.322227272 159.094063,0.322227272 158.511691,0.911284287 L1.84770627,159.397829 C1.26234795,159.986886 1.26234795,160.941461 1.84770627,161.533539" id="Fill-10" fill="#000000"></path>
                        <g id="Group-14" transform="translate(0.469563, 0.469492)">
                            <mask id="mask-6" fill="white">
                                <use xlink:href="#path-5"></use>
                            </mask>
                            <g id="Clip-13"></g>
                            <path d="M1.52793061,118.990882 C1.92332288,118.990882 2.31258504,118.839526 2.61296057,118.539901 L117.552575,2.69940299 C118.150261,2.09706453 118.150261,1.11787841 117.552575,0.515539947 C116.954889,-0.0929763476 115.983266,-0.0867985171 115.38558,0.515539947 L0.442900648,116.352949 C-0.148655235,116.955287 -0.148655235,117.934473 0.442900648,118.536812 C0.743276174,118.839526 1.13866845,118.990882 1.52793061,118.990882" id="Fill-12" fill="#000000" mask="url(#mask-6)"></path>
                        </g>
                        <g id="Group-17" transform="translate(2.347813, 0.469492)">
                            <mask id="mask-8" fill="white">
                                <use xlink:href="#path-7"></use>
                            </mask>
                            <g id="Clip-16"></g>
                            <path d="M1.54644255,73.9135668 C1.94662527,73.9135668 2.34060361,73.7596339 2.6446184,73.4549095 L72.4594419,2.74314765 C73.0643693,2.13055742 73.0643693,1.1347056 72.4594419,0.522115368 C71.8545145,-0.0904748652 70.8711198,-0.0904748652 70.2661924,0.522115368 L0.448266696,71.2307357 C-0.150456296,71.843326 -0.150456296,72.8391778 0.448266696,73.451768 C0.75228148,73.7596339 1.1524642,73.9135668 1.54644255,73.9135668" id="Fill-15" fill="#000000" mask="url(#mask-8)"></path>
                        </g>
                        <path d="M1.90211581,24.8830508 C2.26653098,24.8830508 2.63668496,24.7424668 2.91788721,24.4641679 L24.4671617,2.91751803 C25.0266968,2.35805108 25.0266968,1.44855867 24.4671617,0.889091731 C23.9076267,0.32962479 22.9980235,0.32962479 22.4384884,0.889091731 L0.889213829,22.4357416 C0.329678738,22.9952086 0.329678738,23.904701 0.889213829,24.4641679 C1.16754667,24.7453359 1.53196183,24.8830508 1.90211581,24.8830508" id="Fill-18" fill="#000000"></path>
                        <path d="M274.256622,115.467134 C273.680331,114.878187 272.727809,114.878187 272.145546,115.467134 L115.475033,273.954244 C114.898742,274.54319 114.898742,275.500607 115.475033,276.089553 C115.767658,276.385537 116.152847,276.530508 116.53505,276.530508 C116.914268,276.530508 117.299457,276.382517 117.592081,276.089553 L274.262594,117.602444 C274.838885,117.013497 274.838885,116.059101 274.256622,115.467134" id="Fill-20" fill="#000000"></path>
                        <g id="Group-24" transform="translate(157.303441, 157.279661)">
                            <mask id="mask-10" fill="white">
                                <use xlink:href="#path-9"></use>
                            </mask>
                            <g id="Clip-23"></g>
                            <path d="M117.810532,0.777721405 C117.215911,0.178198513 116.235093,0.178198513 115.643537,0.777721405 L0.716182933,116.070585 C0.121561994,116.670108 0.121561994,117.650866 0.716182933,118.24424 C1.01962352,118.545539 1.40582062,118.696188 1.80121289,118.696188 C2.19660517,118.696188 2.58586733,118.542464 2.88624286,118.24424 L117.813597,2.95137619 C118.402088,2.34877883 118.402088,1.3772443 117.810532,0.777721405" id="Fill-22" fill="#000000" mask="url(#mask-10)"></path>
                        </g>
                        <path d="M273.303773,202.812394 C272.699095,202.196998 271.701688,202.196998 271.100127,202.812394 L200.951249,273.838546 C200.352805,274.453942 200.352805,275.460666 200.957483,276.069751 C201.256705,276.379026 201.661901,276.530508 202.063981,276.530508 C202.459827,276.530508 202.85879,276.375871 203.164246,276.069751 L273.303773,205.043599 C273.905334,204.428203 273.905334,203.42779 273.303773,202.812394" id="Fill-25" fill="#000000"></path>
                        <path d="M273.181135,249.719798 L251.635743,271.265099 C251.07601,271.824829 251.07601,272.734749 251.635743,273.294479 C251.917044,273.57578 252.281588,273.713559 252.654743,273.713559 C253.019286,273.713559 253.3867,273.572909 253.668002,273.294479 L275.213394,251.749178 C275.773127,251.189448 275.773127,250.279528 275.213394,249.719798 C274.656532,249.160067 273.735127,249.160067 273.181135,249.719798" id="Fill-27" fill="#000000"></path>
                    </g>
                </g>
                <rect id="Rectangle" stroke="#8FC691" stroke-width="2" x="2" y="1" width="272" height="273"></rect>
            </g>
        </g>
    </g>
</svg>